<?xml version="1.0" standalone="no"?>
<!DOCTYPE svg PUBLIC "-//W3C//DTD SVG 20010904//EN"
 "http://www.w3.org/TR/2001/REC-SVG-20010904/DTD/svg10.dtd">
<svg version="1.0" xmlns="http://www.w3.org/2000/svg"
 width="524.000000pt" height="390.000000pt" viewBox="0 0 524.000000 390.000000"
 preserveAspectRatio="xMidYMid meet">

<g transform="translate(0.000000,390.000000) scale(0.100000,-0.100000)"
fill="#000000" stroke="none">
<path d="M68 3883 c6 -2 18 -2 25 0 6 3 1 5 -13 5 -14 0 -19 -2 -12 -5z"/>
<path d="M146 3875 c7 -17 34 -21 34 -5 0 16 50 12 56 -5 4 -8 12 -15 20 -15
8 0 11 6 8 15 -5 11 -2 13 11 9 13 -5 15 -14 11 -35 -4 -22 -2 -29 9 -29 8 0
15 -4 15 -10 0 -5 -5 -10 -11 -10 -7 0 -10 -15 -7 -39 3 -36 2 -39 -21 -36
-31 3 -51 -4 -51 -17 0 -6 9 -8 20 -5 11 3 20 1 20 -4 0 -5 -6 -9 -14 -9 -23
0 -29 -19 -12 -36 9 -8 16 -21 16 -29 0 -7 4 -15 9 -17 13 -4 -6 -27 -60 -71
-48 -38 -59 -39 -59 -1 0 24 -41 46 -48 25 -2 -6 -13 -11 -25 -11 -21 0 -21 1
3 17 14 10 31 18 39 20 8 1 18 8 22 15 6 9 2 14 -14 16 -44 6 -85 23 -91 37
-15 40 -25 7 -24 -80 1 -85 3 -95 19 -95 10 0 21 -4 24 -10 10 -16 55 -12 62
6 3 9 0 20 -8 25 -14 9 -12 10 23 13 29 2 25 -49 -9 -116 -32 -66 -48 -79 -69
-58 -6 6 -18 8 -27 4 -15 -5 -16 -96 -14 -1152 l2 -1147 68 -3 c43 -2 74 2 83
9 20 16 26 7 16 -21 -6 -17 -11 -20 -17 -11 -4 7 -10 9 -14 5 -10 -14 -72 -47
-77 -41 -3 3 -6 14 -7 25 -1 16 -7 20 -29 19 -15 -1 -28 -7 -28 -14 0 -7 7
-10 18 -7 16 5 16 5 -1 -6 -13 -8 -17 -25 -17 -66 0 -60 17 -79 46 -50 8 9 28
16 42 15 33 0 112 7 218 20 45 6 98 7 118 4 29 -4 36 -2 36 11 0 9 -5 16 -12
16 -6 0 -9 3 -6 6 3 3 16 -1 27 -8 18 -11 23 -11 31 2 6 10 10 11 10 3 0 -7 8
-13 18 -13 16 0 47 31 103 103 11 14 30 22 55 23 22 1 95 7 164 13 69 6 179
13 245 16 66 4 183 10 260 15 77 6 177 10 223 10 109 0 162 16 162 50 0 57 10
70 51 70 21 0 41 5 44 10 3 6 17 7 31 4 14 -4 24 -2 24 5 0 6 7 11 15 11 8 0
15 7 15 16 0 8 4 13 9 10 5 -3 46 -7 92 -8 88 -1 117 -11 148 -49 11 -13 45
-40 76 -59 64 -39 133 -96 125 -103 -3 -3 -86 -8 -185 -11 -190 -7 -334 -13
-475 -21 -47 -3 -130 -7 -185 -10 -181 -9 -389 -26 -425 -34 -51 -11 116 -21
368 -22 183 0 202 -2 202 -17 -1 -24 -35 -98 -51 -108 -7 -4 -56 -7 -109 -6
-229 6 -356 11 -404 17 -28 3 -92 7 -142 10 -50 2 -106 6 -125 9 -19 3 -72 8
-119 10 -47 3 -100 8 -118 12 l-33 7 3 -64 c2 -48 7 -64 18 -65 8 -1 27 -2 43
-2 20 -2 27 -7 27 -22 0 -11 -4 -20 -10 -20 -5 0 -7 -7 -3 -16 5 -14 3 -15
-18 -4 -13 7 -27 18 -31 24 -4 6 -15 0 -28 -17 -12 -15 -30 -27 -41 -27 -10 0
-18 -3 -18 -7 3 -21 -2 -46 -8 -39 -4 3 -6 29 -4 56 2 48 -10 67 -23 35 -3 -8
-13 -15 -21 -15 -9 0 -13 4 -10 10 7 12 -22 2 -50 -17 -26 -18 -35 -16 -35 5
0 9 -5 24 -10 32 -9 13 -13 12 -26 -5 -16 -20 -16 -20 -11 2 6 26 4 27 -24 12
-12 -6 -18 -17 -15 -25 3 -8 -1 -14 -8 -14 -7 0 -19 -7 -26 -15 -15 -18 -31
-10 -23 10 4 11 1 13 -12 9 -12 -5 -16 -15 -12 -37 4 -27 3 -28 -10 -12 -7 11
-13 25 -13 33 0 12 -3 12 -15 2 -8 -7 -15 -19 -15 -26 0 -21 -18 -17 -42 11
-16 19 -25 22 -39 14 -12 -6 -16 -15 -12 -26 5 -11 3 -14 -6 -8 -9 5 -11 19
-6 43 6 32 5 34 -9 23 -9 -7 -13 -17 -10 -22 3 -5 0 -9 -5 -9 -8 0 -11 -112
-11 -355 l0 -355 2620 0 2620 0 0 315 0 314 -36 35 c-31 30 -36 40 -31 65 5
24 2 31 -14 36 -11 4 -23 4 -26 1 -4 -3 -2 -6 4 -6 18 0 22 -39 7 -69 -11 -22
-19 -27 -39 -23 -14 2 -25 8 -25 13 0 5 -19 9 -42 9 -114 -1 -159 5 -169 22
-13 24 -34 23 -60 -3 l-21 -21 -14 21 c-19 26 -34 27 -34 3 0 -24 -10 -34 -24
-23 -6 4 -22 11 -36 14 l-25 6 23 -17 c26 -20 20 -32 -14 -32 -14 0 -30 10
-41 26 -16 25 -16 28 0 56 14 25 15 30 2 34 -19 8 -19 33 0 40 23 9 18 23 -10
30 -16 4 -25 13 -25 26 0 10 4 16 10 13 14 -9 50 13 50 30 0 19 -39 19 -133 0
-111 -22 -562 -57 -897 -70 -74 -2 -201 -7 -282 -11 l-148 -6 -10 28 c-8 21
-13 25 -20 15 -22 -37 -185 -55 -216 -24 -12 13 -18 10 -16 -8 1 -11 -295 -17
-572 -13 -260 4 -270 3 -288 -16 -11 -11 -24 -18 -30 -14 -6 4 -5 9 3 15 11 7
10 9 -3 9 -10 0 -18 -6 -18 -12 0 -7 -5 -5 -11 5 -15 25 -149 25 -172 -1 -21
-23 -22 -33 -2 -26 9 4 15 0 15 -10 0 -11 9 -16 29 -16 15 0 39 -9 53 -19 15
-12 29 -16 38 -11 7 4 19 6 27 3 7 -3 13 0 13 6 0 6 5 11 10 11 21 0 9 -30
-15 -36 -14 -3 -22 -10 -19 -15 3 -5 -2 -6 -10 -3 -9 3 -16 1 -16 -5 0 -7 -9
-9 -25 -5 -24 6 -37 -10 -14 -18 14 -5 0 -38 -17 -38 -8 0 -14 7 -14 15 0 14
-15 19 -48 18 -8 -1 -23 8 -34 19 -19 19 -22 20 -33 5 -16 -22 -45 -22 -46 1
0 9 -3 12 -5 5 -7 -17 -34 -4 -27 13 3 8 -1 14 -11 14 -8 0 -18 -11 -22 -24
-3 -13 -17 -29 -30 -35 -31 -14 -37 -14 -29 -1 3 5 0 7 -8 4 -8 -3 -17 3 -21
13 -6 14 -9 15 -16 3 -7 -12 -11 -12 -25 0 -13 11 -18 11 -24 1 -6 -10 -10 -9
-14 3 -5 13 -12 14 -33 6 -21 -8 -29 -8 -36 2 -12 19 -5 61 11 66 10 3 13 -2
9 -22 -3 -15 -1 -29 4 -32 14 -9 48 26 45 47 -1 10 3 18 8 18 6 1 11 -3 11 -9
1 -5 2 -14 3 -18 0 -5 11 -14 24 -21 18 -10 29 -8 65 9 23 11 42 25 42 31 0 8
4 8 14 0 11 -9 15 -9 20 1 5 10 7 10 12 0 3 -6 23 -15 45 -18 21 -4 39 -10 39
-15 0 -5 5 -9 11 -9 8 0 10 17 6 54 -5 48 -3 53 12 49 14 -4 19 3 24 34 4 22
2 39 -3 41 -19 7 -10 32 10 32 11 0 23 6 25 13 7 18 1033 11 1055 -7 22 -19
49 -26 55 -17 3 5 20 9 39 9 19 0 48 3 64 7 17 3 40 1 51 -5 18 -9 21 -8 21 8
0 18 12 20 178 26 97 4 272 13 387 21 116 7 272 17 348 20 75 4 137 10 137 15
0 23 -337 39 -888 41 -249 1 -455 6 -458 11 -10 16 105 95 124 85 4 -3 137 -8
296 -12 l289 -7 -5 51 c-4 45 -3 51 13 51 16 0 19 -8 19 -49 0 -39 4 -51 18
-55 9 -3 105 -5 212 -6 107 0 242 -4 300 -9 107 -8 125 -7 115 10 -9 14 5 11
20 -4 17 -18 153 -31 169 -17 9 6 16 6 23 -1 6 -6 33 -15 60 -20 39 -8 58 -20
108 -69 l61 -60 61 0 c34 0 65 -4 68 -10 3 -5 20 -10 38 -9 18 0 66 -2 107 -5
41 -3 123 -7 183 -8 l107 -3 0 42 0 43 -42 -1 c-71 -1 -78 1 -95 27 -18 28
-12 40 14 29 21 -9 93 -13 111 -7 9 3 12 287 12 1373 0 1337 0 1369 -19 1369
-10 0 -21 -7 -25 -15 -3 -8 -14 -15 -25 -15 -10 0 -26 -11 -34 -24 -17 -25
-62 -33 -71 -11 -2 7 3 21 12 31 23 26 28 74 7 74 -18 0 -20 36 -3 43 7 3 -43
6 -112 6 -88 1 -130 -3 -139 -11 -11 -10 -14 -10 -18 0 -4 9 -81 12 -343 12
-351 0 -405 -3 -396 -26 3 -8 -4 -14 -17 -16 -16 -2 -21 -10 -22 -33 0 -29 -1
-30 -49 -30 -42 0 -50 -3 -57 -23 -8 -20 -13 -22 -44 -16 -27 5 -41 2 -55 -11
-25 -23 -25 -32 2 -46 17 -9 24 -9 33 5 7 10 19 14 29 10 22 -9 20 -24 -4 -24
-13 0 -20 -7 -20 -20 0 -11 5 -20 11 -20 20 0 -10 -27 -36 -34 -17 -4 -25 -13
-25 -27 0 -15 -4 -19 -16 -15 -11 4 -18 -1 -21 -14 -6 -23 -28 -27 -40 -7 -14
24 -41 27 -46 6 -3 -13 -14 -19 -32 -19 -17 0 -36 -11 -53 -30 -15 -16 -31
-30 -36 -30 -5 0 -24 -11 -42 -25 -18 -14 -37 -25 -42 -25 -12 0 -24 -29 -17
-39 2 -4 -12 -17 -33 -27 -31 -17 -37 -26 -40 -57 -2 -27 -11 -42 -32 -57 -15
-11 -33 -20 -39 -20 -6 0 -11 -4 -11 -9 0 -5 -10 -11 -22 -13 -18 -2 -23 -10
-23 -32 -1 -16 -6 -31 -13 -34 -7 -2 -12 1 -12 7 0 6 -4 11 -9 11 -5 0 -7 -9
-4 -20 4 -15 0 -20 -14 -20 -10 0 -24 5 -30 11 -8 8 -12 -8 -15 -61 -2 -51 1
-74 10 -77 17 -7 15 -40 -4 -47 -10 -4 -27 5 -44 23 -32 32 -43 30 -34 -5 4
-13 3 -24 0 -24 -4 0 -35 15 -69 34 -205 113 -428 141 -667 85 -9 -3 -15 3
-15 15 0 10 7 22 15 26 8 4 32 16 53 26 35 17 42 26 38 48 -1 4 4 14 10 22 8
10 8 14 0 14 -21 0 -11 18 14 24 14 4 25 11 25 17 0 8 -4 8 -12 2 -16 -13 -77
-8 -91 6 -8 8 -5 17 11 31 12 12 22 27 22 35 0 7 3 21 6 30 6 15 4 15 -14 4
-17 -10 -28 -10 -61 1 -23 7 -41 17 -41 22 0 5 4 7 9 4 5 -3 11 3 14 14 3 11
13 20 22 20 12 0 15 6 10 19 -4 13 0 21 12 25 23 8 56 53 48 66 -8 12 -68 13
-81 1 -10 -10 -94 -20 -94 -11 0 20 28 60 42 60 9 0 20 5 23 10 3 6 1 10 -4
10 -6 0 -11 5 -11 10 0 6 6 10 14 10 15 0 15 29 1 63 -5 11 0 23 14 35 24 18
45 88 30 98 -5 3 -19 -2 -31 -10 -16 -11 -25 -12 -35 -5 -9 8 -22 3 -50 -20
-24 -20 -39 -27 -42 -19 -2 6 5 19 17 28 27 22 35 86 9 82 -10 -2 -17 3 -17
13 0 12 -13 15 -60 15 -38 0 -60 -4 -60 -11 0 -8 -4 -8 -13 0 -10 7 -292 11
-985 11 -862 0 -971 -2 -966 -15z m4102 -38 c-2 -11 -9 -22 -17 -25 -9 -3 -11
2 -6 17 5 16 2 21 -11 21 -13 0 -14 3 -4 15 17 20 42 1 38 -28z m500 -14 c-2
-17 -9 -28 -18 -28 -9 0 -16 11 -18 28 -3 22 1 27 18 27 17 0 21 -5 18 -27z
m120 -3 c-23 -19 -35 -36 -31 -45 7 -20 -14 -19 -34 0 -14 14 -14 18 2 35 10
11 26 20 36 20 10 0 21 5 24 10 3 6 14 10 23 10 11 0 4 -10 -20 -30z m-788 16
c0 -3 -4 -8 -10 -11 -5 -3 -10 -1 -10 4 0 6 5 11 10 11 6 0 10 -2 10 -4z m220
-26 c0 -5 -4 -10 -10 -10 -5 0 -10 5 -10 10 0 6 5 10 10 10 6 0 10 -4 10 -10z
m684 2 c2 -4 -4 -9 -15 -9 -10 -1 -19 2 -19 8 0 11 27 12 34 1z m23 -48 c2 -6
-12 -15 -32 -21 -39 -12 -43 -8 -18 19 18 20 44 21 50 2z m-3607 -43 c-1 -13
-3 -13 -15 3 -19 26 -19 42 0 26 8 -7 15 -20 15 -29z m2830 29 c0 -5 -5 -10
-11 -10 -5 0 -7 5 -4 10 3 6 8 10 11 10 2 0 4 -4 4 -10z m-3628 -35 c6 -14 8
-28 4 -32 -9 -9 -47 38 -40 49 10 15 25 8 36 -17z m3391 5 c-7 -27 -18 -33
-45 -24 l-21 6 24 19 c32 25 48 24 42 -1z m395 8 c-6 -18 -28 -21 -28 -4 0 9
7 16 16 16 9 0 14 -5 12 -12z m362 2 c0 -5 -10 -15 -22 -21 -23 -12 -23 -12
-4 10 21 23 26 26 26 11z m101 0 c15 0 10 -20 -6 -26 -18 -7 -47 14 -39 28 3
5 13 7 21 4 8 -3 19 -6 24 -6z m-4301 -31 c0 -5 -7 -9 -15 -9 -15 0 -20 12 -9
23 8 8 24 -1 24 -14z m3850 -9 c0 -5 -2 -10 -4 -10 -3 0 -8 5 -11 10 -3 6 -1
10 4 10 6 0 11 -4 11 -10z m210 0 c20 -1 -18 -30 -38 -30 -8 0 -20 -7 -27 -16
-9 -13 -16 -14 -31 -6 -18 11 -18 11 4 12 15 0 22 6 22 18 0 26 11 34 35 28
11 -3 27 -6 35 -6z m425 -30 c-3 -5 -10 -10 -16 -10 -5 0 -9 5 -9 10 0 6 7 10
16 10 8 0 12 -4 9 -10z m-4441 -40 c8 -16 10 -30 5 -30 -5 0 -9 -7 -9 -16 0
-9 -6 -14 -12 -11 -7 2 -12 15 -10 29 2 15 -2 29 -7 33 -16 9 -13 25 3 25 8 0
21 -13 30 -30z m1236 0 c0 -5 -8 -10 -17 -10 -15 0 -16 2 -3 10 19 12 20 12
20 0z m2517 4 c-3 -3 -12 -4 -19 -1 -8 3 -5 6 6 6 11 1 17 -2 13 -5z m343 -11
c-1 -19 -19 -35 -30 -28 -10 6 -9 11 5 22 22 15 25 16 25 6z m-2734 -14 c13
-22 -12 -30 -31 -9 -18 19 -18 20 3 20 11 0 24 -5 28 -11z m2419 -17 c-2 -3
-12 -1 -22 2 -15 6 -15 9 -3 16 13 8 35 -8 25 -18z m-2720 -72 c3 -5 1 -10 -4
-10 -6 0 -11 5 -11 10 0 6 2 10 4 10 3 0 8 -4 11 -10z m-1340 -18 c-3 -3 -11
0 -18 7 -9 10 -8 11 6 5 10 -3 15 -9 12 -12z m1802 -38 c-3 -3 -12 -4 -19 -1
-8 3 -5 6 6 6 11 1 17 -2 13 -5z m2185 -16 c-7 -7 -12 -8 -12 -2 0 6 3 14 7
17 3 4 9 5 12 2 2 -3 -1 -11 -7 -17z m-2722 -106 c0 -5 -7 -17 -16 -28 -8 -10
-14 -14 -11 -9 2 6 7 18 10 28 7 17 17 23 17 9z m105 -56 c-4 -20 -2 -36 4
-40 7 -4 11 1 11 13 0 12 5 21 10 21 6 0 10 9 10 20 0 11 5 20 10 20 11 0 12
-101 1 -139 -3 -13 -15 -26 -26 -28 -75 -16 -75 -16 -75 9 0 13 -5 29 -10 34
-6 6 -12 20 -15 32 -3 17 1 22 16 22 18 0 20 4 14 29 -6 30 -6 30 48 40 4 0 5
-14 2 -33z m175 -1 c0 -8 7 -15 15 -15 9 0 12 -6 9 -15 -4 -9 0 -15 8 -15 20
0 53 -63 45 -84 -10 -24 -54 -38 -77 -24 -21 14 -44 57 -34 67 3 3 13 -4 21
-16 16 -24 43 -21 43 6 -1 23 -24 51 -44 51 -16 0 -23 39 -9 53 11 12 23 8 23
-8z m467 9 c-3 -3 -12 -4 -19 -1 -8 3 -5 6 6 6 11 1 17 -2 13 -5z m-887 -8 c0
-3 -4 -8 -10 -11 -5 -3 -10 -1 -10 4 0 6 5 11 10 11 6 0 10 -2 10 -4z m357
-58 c-3 -13 -9 -40 -12 -60 -9 -50 -20 -48 -23 5 -2 54 5 77 25 77 11 0 14 -7
10 -22z m378 12 c-3 -5 -10 -10 -16 -10 -5 0 -9 5 -9 10 0 6 7 10 16 10 8 0
12 -4 9 -10z m-70 -30 c3 -5 1 -10 -4 -10 -6 0 -11 5 -11 10 0 6 2 10 4 10 3
0 8 -4 11 -10z m-533 -12 c-9 -9 -15 -9 -24 0 -9 9 -7 12 12 12 19 0 21 -3 12
-12z m488 -17 c0 -4 -3 -11 -7 -14 -8 -9 -34 13 -28 24 6 9 35 1 35 -10z m-39
-84 c-13 -13 -26 -3 -16 12 3 6 11 8 17 5 6 -4 6 -10 -1 -17z m69 -18 c8 -15
15 -17 24 -10 19 16 56 1 62 -25 4 -14 14 -24 24 -24 33 0 30 -16 -6 -33 -28
-14 -43 -15 -83 -6 -28 6 -54 16 -59 22 -12 16 -22 84 -15 102 7 19 38 3 53
-26z m170 -49 c0 -5 -4 -10 -10 -10 -5 0 -10 5 -10 10 0 6 5 10 10 10 6 0 10
-4 10 -10z m-478 -477 c-5 -10 -7 -24 -5 -30 5 -14 -13 -18 -21 -5 -9 15 6 52
21 52 10 0 11 -5 5 -17z m-102 -93 c0 -5 -2 -10 -4 -10 -3 0 -8 5 -11 10 -3 6
-1 10 4 10 6 0 11 -4 11 -10z m1622 -207 c-2 -12 4 -23 15 -27 14 -6 15 -9 4
-16 -11 -6 -19 1 -31 23 -17 34 -16 51 3 44 7 -2 11 -13 9 -24z m-717 -203
c-11 -5 -27 -9 -35 -9 -13 -1 -13 0 0 9 8 5 24 9 35 9 l20 0 -20 -9z m-635
-14 c-14 -7 -36 -16 -50 -20 -14 -3 -7 3 15 14 45 22 74 27 35 6z m568 -223
c-10 -2 -28 -2 -40 0 -13 2 -5 4 17 4 22 1 32 -1 23 -4z m542 -153 c0 -5 -2
-10 -4 -10 -3 0 -8 5 -11 10 -3 6 -1 10 4 10 6 0 11 -4 11 -10z m-1492 -349
c5 -30 -8 -42 -35 -35 -17 5 -21 12 -18 32 1 15 3 28 4 30 0 2 11 2 24 0 14
-2 23 -11 25 -27z m1746 -23 c137 0 146 -2 159 -22 l14 -21 -196 -3 c-145 -2
-203 -6 -224 -17 l-29 -15 24 32 c23 29 84 61 100 51 4 -2 73 -4 152 -5z
m-3184 -52 c0 -3 -4 -8 -10 -11 -5 -3 -10 -1 -10 4 0 6 5 11 10 11 6 0 10 -2
10 -4z m2894 -51 c-4 -8 -16 -15 -27 -15 -20 0 -20 0 -1 15 25 19 35 19 28 0z
m1531 -65 c3 -5 2 -10 -4 -10 -5 0 -13 5 -16 10 -3 6 -2 10 4 10 5 0 13 -4 16
-10z m73 -6 c13 -9 31 -13 43 -9 27 9 53 -13 38 -31 -9 -11 -14 -11 -27 2 -9
9 -25 14 -39 11 -23 -4 -53 15 -53 34 0 13 13 11 38 -7z m133 -22 c-7 -2 -19
-1 -29 3 -14 5 -14 7 -2 15 9 5 20 4 28 -3 10 -8 11 -12 3 -15z m173 -3 c5 -5
6 -12 1 -16 -4 -5 -10 -2 -12 5 -5 14 -40 17 -45 4 -6 -18 -55 -22 -68 -7 -10
12 -9 15 4 15 10 0 15 4 11 10 -7 11 96 1 109 -11z m111 11 c3 -5 -1 -10 -9
-10 -9 0 -16 -6 -16 -14 0 -17 -35 -30 -51 -20 -9 5 -10 -1 -5 -19 6 -24 4
-26 -16 -23 -13 3 -26 5 -30 5 -18 2 8 42 31 47 42 9 71 23 71 34 0 13 17 13
25 0z m-4609 -57 c-7 -7 -26 7 -26 19 0 6 6 6 15 -2 9 -7 13 -15 11 -17z
m4239 17 c4 -6 -6 -10 -22 -9 -25 0 -26 1 -8 9 11 5 21 9 22 9 1 1 5 -3 8 -9z
m-4320 -20 c-10 -11 -21 -17 -24 -14 -3 3 3 12 13 20 28 20 32 17 11 -6z m155
10 c0 -5 -5 -10 -11 -10 -5 0 -7 5 -4 10 3 6 8 10 11 10 2 0 4 -4 4 -10z
m4395 0 c-3 -5 -13 -10 -21 -10 -8 0 -12 5 -9 10 3 6 13 10 21 10 8 0 12 -4 9
-10z m180 0 c-3 -5 -13 -10 -21 -10 -8 0 -14 5 -14 10 0 6 9 10 21 10 11 0 17
-4 14 -10z m-4767 -31 c25 -31 21 -40 -5 -13 -12 12 -27 14 -55 10 -22 -4 -38
-2 -38 4 0 5 -7 7 -15 4 -9 -4 -15 0 -15 10 0 13 11 16 53 15 45 0 55 -4 75
-30z m4586 -30 c-6 -11 -44 8 -44 21 0 6 10 5 25 -2 13 -6 22 -15 19 -19z
m-4664 -8 c0 -5 -7 -12 -16 -15 -14 -5 -15 -4 -4 9 14 17 20 19 20 6z m4765
-1 c3 -5 -1 -10 -9 -10 -8 0 -18 5 -21 10 -3 6 1 10 9 10 8 0 18 -4 21 -10z
m-4735 -20 c0 -5 -2 -10 -4 -10 -3 0 -8 5 -11 10 -3 6 -1 10 4 10 6 0 11 -4
11 -10z m-175 -28 c-3 -3 -11 0 -18 7 -9 10 -8 11 6 5 10 -3 15 -9 12 -12z
m1598 -42 c-17 -29 -43 -41 -43 -19 0 23 22 49 41 49 20 0 20 -1 2 -30z
m-1012 -54 c7 -14 17 -22 25 -19 8 3 14 0 14 -6 0 -6 9 -11 20 -11 11 0 20 -4
20 -10 0 -5 7 -10 15 -10 10 0 15 10 15 33 0 28 3 32 25 32 26 0 33 -9 15 -20
-15 -9 -2 -25 21 -25 11 0 18 -3 15 -8 -6 -11 17 -38 32 -36 6 1 19 2 28 3 9
0 14 8 12 19 -2 9 5 26 15 37 15 16 19 17 27 6 4 -8 6 -20 3 -27 -2 -7 5 -15
16 -19 13 -4 18 -11 14 -22 -5 -13 0 -14 28 -8 19 4 37 13 41 19 5 8 8 7 8 -2
0 -7 5 -10 10 -7 6 4 7 12 4 18 -5 8 -3 8 7 0 17 -17 39 -16 39 1 0 8 13 16
30 18 21 3 27 1 20 -6 -15 -15 -12 -39 4 -33 9 4 15 -5 19 -29 8 -46 0 -69
-19 -53 -8 6 -14 17 -14 25 0 7 -9 18 -19 23 -14 8 -22 7 -32 -6 -8 -9 -14
-19 -14 -22 0 -3 -4 -5 -8 -3 -4 1 -17 -2 -27 -8 -17 -9 -20 -7 -20 8 0 14 -8
18 -37 17 -21 0 -43 -4 -50 -8 -7 -5 -13 1 -15 15 -3 23 -24 23 -22 1 3 -20
-31 -15 -51 7 -10 11 -28 20 -39 19 -20 0 -20 -1 2 -9 27 -11 32 -53 5 -43
-10 4 -21 11 -24 16 -4 5 -19 7 -33 3 -18 -4 -26 -13 -26 -29 0 -22 -1 -22
-20 3 -16 20 -22 22 -29 11 -7 -11 -11 -10 -20 7 -16 30 -15 31 27 29 20 -1
39 2 42 7 7 14 -61 30 -69 17 -5 -7 -12 -4 -22 7 -25 30 -58 90 -52 96 14 13
34 5 44 -18z m3495 -20 c10 -8 29 -12 42 -9 20 5 22 2 18 -18 -8 -46 -18 -60
-35 -53 -41 16 -54 17 -49 2 4 -10 -7 -19 -38 -31 -42 -15 -63 -10 -49 13 3 6
3 15 -1 21 -5 8 -12 4 -23 -10 -19 -25 -82 -33 -89 -12 -3 9 -8 9 -21 -2 -25
-22 -73 -31 -82 -15 -7 11 -9 10 -9 -1 0 -11 -3 -11 -15 -1 -14 11 -14 10 -5
-14 13 -36 13 -41 -5 -26 -8 7 -15 21 -15 32 0 14 -5 18 -15 15 -8 -4 -22 4
-32 17 -10 12 -24 21 -31 18 -10 -3 -10 -7 -1 -18 10 -12 8 -18 -7 -29 -21
-16 -58 -20 -49 -6 3 5 -5 11 -17 13 -19 2 -24 10 -26 46 -3 42 9 56 25 28 10
-18 59 -31 67 -18 3 6 20 7 40 2 18 -4 41 -3 50 2 10 6 27 8 37 5 12 -3 22 0
26 9 3 9 13 12 28 8 13 -3 25 -1 29 4 3 5 26 7 51 4 25 -2 51 0 58 6 7 6 35 9
66 6 45 -4 52 -2 48 11 -8 19 3 19 29 1z m279 -15 c19 -38 28 -43 60 -35 25 6
25 7 9 25 -12 13 -14 23 -7 30 7 7 21 -1 46 -26 30 -30 34 -39 25 -54 -14 -23
-92 -27 -84 -4 4 9 1 13 -6 10 -7 -2 -12 -11 -10 -19 2 -11 -4 -14 -23 -10
-14 2 -25 11 -25 19 0 11 -4 13 -12 6 -7 -5 -33 -8 -58 -6 -25 1 -55 2 -68 2
-19 1 -21 5 -16 29 10 39 16 47 25 29 7 -12 14 -13 34 -4 14 7 25 16 25 20 0
5 9 6 19 2 11 -3 22 -1 26 5 11 17 24 11 40 -19z m-2355 -16 c0 -8 -34 -45
-42 -45 -13 0 -9 18 8 34 15 15 34 21 34 11z m1500 -25 c0 -11 -4 -20 -10 -20
-5 0 -10 9 -10 20 0 11 5 20 10 20 6 0 10 -9 10 -20z m-1270 -6 c0 -2 -7 -4
-15 -4 -8 0 -15 4 -15 10 0 5 7 7 15 4 8 -4 15 -8 15 -10z m-1014 -21 c-10
-10 -19 5 -10 18 6 11 8 11 12 0 2 -7 1 -15 -2 -18z m1509 10 c11 -15 37 -18
196 -20 161 -3 186 -1 196 13 11 15 13 15 28 0 22 -22 35 -20 35 4 0 11 4 20
10 20 15 0 64 -24 72 -35 5 -6 8 -5 8 3 0 6 11 12 25 12 14 0 25 -4 25 -10 0
-5 7 -10 15 -10 8 0 15 5 15 10 0 13 37 13 45 0 5 -8 12 -7 22 1 11 10 16 10
22 0 4 -7 21 -11 37 -9 20 2 29 -1 29 -12 0 -8 5 -18 10 -22 6 -4 0 -8 -13 -8
-16 0 -21 -4 -16 -12 6 -9 3 -9 -9 1 -9 7 -23 11 -32 8 -8 -4 -17 -2 -20 3
-10 16 -25 11 -25 -7 -1 -16 -2 -16 -13 -3 -7 8 -20 21 -30 29 -16 13 -20 12
-34 -8 -19 -27 -56 -22 -84 12 -16 20 -18 20 -24 5 -4 -10 -17 -18 -29 -18
-12 0 -27 -5 -34 -12 -8 -8 -15 -8 -24 0 -20 16 -85 25 -92 13 -7 -10 15 -36
50 -58 18 -12 18 -12 -1 -7 -61 17 -76 27 -72 46 7 24 -21 37 -35 17 -7 -11
-11 -11 -15 -1 -6 15 -133 17 -133 1 0 -6 -9 -8 -20 -4 -15 5 -18 3 -14 -9 4
-11 0 -16 -14 -16 -11 0 -22 5 -24 11 -3 8 -14 7 -36 -5 -31 -16 -32 -16 -29
6 2 23 2 23 -141 24 -96 0 -141 -3 -139 -10 5 -15 47 -20 47 -6 0 6 5 8 10 5
7 -4 4 -17 -7 -35 -16 -28 -18 -28 -35 -13 -10 9 -18 22 -18 29 0 22 -39 36
-78 29 -20 -4 -31 -10 -25 -13 12 -8 -1 -52 -16 -52 -5 0 -13 9 -16 20 -10 32
-34 50 -66 50 -16 0 -29 5 -29 10 0 6 47 10 120 10 82 0 120 4 120 11 0 8 5 8
15 -1 10 -9 48 -11 135 -7 70 2 120 1 120 -5 0 -5 5 -6 10 -3 6 4 8 15 5 26
-8 24 4 25 20 2z m-1535 -15 c0 -9 15 -12 47 -11 57 2 92 -20 68 -43 -17 -18
-54 -13 -70 9 -14 19 -40 22 -50 7 -3 -5 -10 -10 -14 -10 -11 0 -22 40 -15 52
8 13 34 9 34 -4z m950 7 c0 -3 -9 -22 -21 -43 -13 -23 -19 -29 -16 -14 5 19 2
23 -15 20 -24 -3 -38 -28 -16 -28 7 0 19 -9 26 -21 12 -19 11 -23 -10 -38 -34
-24 -68 -24 -68 0 0 10 -7 19 -15 19 -8 0 -15 -5 -15 -12 0 -6 -2 -9 -5 -6 -3
3 -1 16 4 29 8 21 6 24 -17 26 -15 0 -28 6 -30 12 -2 6 -10 11 -19 11 -24 0
-9 23 18 27 13 1 34 5 47 8 18 4 22 1 23 -17 1 -18 2 -19 6 -5 4 15 13 18 44
16 21 -2 44 2 51 9 12 12 28 16 28 7z m-1563 -27 c-3 -8 -6 -5 -6 6 -1 11 2
17 5 13 3 -3 4 -12 1 -19z m-197 2 c-8 -5 -19 -10 -25 -10 -5 0 -3 5 5 10 8 5
20 10 25 10 6 0 3 -5 -5 -10z m1785 0 c3 -5 -1 -10 -9 -10 -9 0 -16 5 -16 10
0 6 4 10 9 10 6 0 13 -4 16 -10z m2035 0 c0 -5 -4 -10 -10 -10 -5 0 -10 5 -10
10 0 6 5 10 10 10 6 0 10 -4 10 -10z m-4202 -22 c7 -7 11 -21 11 -32 -1 -17
-2 -18 -6 -3 -2 9 -11 17 -19 17 -8 0 -14 7 -14 15 0 18 12 19 28 3z m846 -6
c3 -5 -1 -9 -9 -9 -8 0 -15 4 -15 9 0 4 4 8 9 8 6 0 12 -4 15 -8z m3006 -12
c0 -5 -2 -10 -4 -10 -3 0 -8 5 -11 10 -3 6 -1 10 4 10 6 0 11 -4 11 -10z
m-2440 -10 c26 -8 20 -11 -41 -14 -29 -2 -34 0 -25 10 12 15 29 16 66 4z
m1170 -17 c0 -9 6 -12 19 -8 25 8 51 -22 26 -31 -9 -4 -27 -2 -39 4 -13 6 -29
7 -37 2 -9 -6 -20 -3 -31 7 -22 20 -24 47 -3 40 8 -4 17 -2 20 2 8 14 45 0 45
-16z m70 -6 c0 -5 -4 -5 -10 -2 -5 3 -10 14 -10 23 0 15 2 15 10 2 5 -8 10
-19 10 -23z m-274 6 c-2 -10 -10 -19 -19 -21 -19 -4 -20 -1 -11 22 8 22 33 20
30 -1z m439 -9 c-9 -10 -22 -13 -33 -9 -14 7 -13 9 8 15 39 12 43 11 25 -6z
m-615 -18 c0 -16 -37 -46 -57 -46 -7 0 -13 7 -13 16 0 10 6 14 15 10 10 -4 15
1 15 14 0 13 7 20 20 20 11 0 20 -6 20 -14z m90 -6 c20 -15 22 -22 13 -31 -20
-20 -63 4 -56 30 7 26 11 26 43 1z m-853 4 c-3 -3 -12 -4 -19 -1 -8 3 -5 6 6
6 11 1 17 -2 13 -5z m953 -24 c0 -5 -7 -10 -15 -10 -8 0 -15 5 -15 10 0 6 7
10 15 10 8 0 15 -4 15 -10z m188 -38 c6 -18 -15 -14 -22 4 -4 10 -1 14 6 12 6
-2 14 -10 16 -16z m-358 -23 c17 -30 6 -34 -14 -4 -9 14 -12 25 -7 25 6 0 15
-9 21 -21z m480 17 c0 -11 -19 -15 -25 -6 -3 5 1 10 9 10 9 0 16 -2 16 -4z
m1700 -27 c0 -5 -4 -9 -10 -9 -5 0 -10 7 -10 16 0 8 5 12 10 9 6 -3 10 -10 10
-16z m-1974 -17 c-8 -9 -19 -13 -22 -9 -10 9 16 38 28 31 6 -4 4 -13 -6 -22z
m-78 -18 c-7 -6 -58 9 -58 18 0 5 5 6 10 3 6 -3 10 -1 10 6 0 7 8 5 20 -6 11
-10 19 -19 18 -21z m2062 1 c10 -12 10 -15 -4 -15 -9 0 -16 7 -16 15 0 8 2 15
4 15 2 0 9 -7 16 -15z m-2050 -47 c0 -5 -4 -8 -10 -8 -5 0 -10 10 -10 23 0 18
2 19 10 7 5 -8 10 -18 10 -22z m-75 -58 c3 -5 1 -10 -4 -10 -6 0 -11 5 -11 10
0 6 2 10 4 10 3 0 8 -4 11 -10z"/>
<path d="M1657 3223 c-4 -3 -7 -11 -7 -17 0 -6 5 -5 12 2 6 6 9 14 7 17 -3 3
-9 2 -12 -2z"/>
<path d="M730 770 c0 -5 5 -10 11 -10 5 0 7 5 4 10 -3 6 -8 10 -11 10 -2 0 -4
-4 -4 -10z"/>
<path d="M1080 700 c0 -5 5 -10 11 -10 5 0 7 5 4 10 -3 6 -8 10 -11 10 -2 0
-4 -4 -4 -10z"/>
<path d="M3985 720 c3 -5 8 -10 11 -10 2 0 4 5 4 10 0 6 -5 10 -11 10 -5 0 -7
-4 -4 -10z"/>
<path d="M2055 690 c-3 -5 1 -10 9 -10 9 0 16 5 16 10 0 6 -4 10 -9 10 -6 0
-13 -4 -16 -10z"/>
<path d="M3952 3868 c-7 -7 -12 -20 -12 -30 0 -16 5 -18 38 -12 45 8 46 9 38
29 -5 14 -8 14 -33 -1 -17 -11 -23 -12 -15 -4 23 26 9 43 -16 18z"/>
<path d="M5135 3870 c4 -6 11 -8 16 -5 14 9 11 15 -7 15 -8 0 -12 -5 -9 -10z"/>
<path d="M210 3830 c0 -5 5 -10 10 -10 6 0 10 5 10 10 0 6 -4 10 -10 10 -5 0
-10 -4 -10 -10z"/>
<path d="M105 3780 c3 -5 11 -10 16 -10 6 0 7 5 4 10 -3 6 -11 10 -16 10 -6 0
-7 -4 -4 -10z"/>
<path d="M85 3740 c-19 -21 -65 -28 -65 -10 0 6 -4 10 -10 10 -5 0 -10 -13
-10 -30 0 -16 5 -30 10 -30 6 0 10 6 10 14 0 10 13 13 47 12 34 -1 47 3 45 12
-1 7 5 15 13 18 8 3 12 10 9 15 -9 15 -30 10 -49 -11z"/>
<path d="M1916 1218 c-13 -40 -14 -77 -3 -81 6 -2 31 0 55 5 25 4 48 5 53 2 5
-2 20 3 34 12 23 15 25 15 19 0 -5 -13 1 -16 32 -16 28 0 35 3 27 11 -15 15
-5 39 13 32 10 -4 12 0 8 11 -9 22 -54 33 -65 15 -5 -8 -9 -9 -9 -3 0 6 -28
11 -71 12 -39 1 -75 5 -80 8 -5 3 -11 -1 -13 -8z m194 -47 c0 -6 -4 -13 -10
-16 -5 -3 -10 1 -10 9 0 9 5 16 10 16 6 0 10 -4 10 -9z"/>
<path d="M2168 1153 c7 -3 16 -2 19 1 4 3 -2 6 -13 5 -11 0 -14 -3 -6 -6z"/>
<path d="M3100 870 c0 -5 5 -10 10 -10 6 0 10 5 10 10 0 6 -4 10 -10 10 -5 0
-10 -4 -10 -10z"/>
<path d="M4700 840 c8 -5 20 -10 25 -10 6 0 3 5 -5 10 -8 5 -19 10 -25 10 -5
0 -3 -5 5 -10z"/>
<path d="M4950 835 c-8 -9 -8 -15 -2 -15 12 0 26 19 19 26 -2 2 -10 -2 -17
-11z"/>
<path d="M4755 830 c3 -5 11 -10 16 -10 6 0 7 5 4 10 -3 6 -11 10 -16 10 -6 0
-7 -4 -4 -10z"/>
<path d="M4835 820 c3 -5 13 -10 21 -10 8 0 14 5 14 10 0 6 -9 10 -21 10 -11
0 -17 -4 -14 -10z"/>
<path d="M275 810 c-3 -5 -1 -10 4 -10 6 0 11 5 11 10 0 6 -2 10 -4 10 -3 0
-8 -4 -11 -10z"/>
<path d="M4966 805 c-3 -8 -13 -15 -21 -15 -9 0 -13 -4 -10 -10 3 -5 15 -10
26 -10 14 0 19 7 19 25 0 28 -5 32 -14 10z"/>
<path d="M5038 754 c-11 -10 31 -44 47 -38 18 7 19 16 3 32 -13 13 -41 16 -50
6z"/>
<path d="M1885 730 c-3 -5 -1 -10 4 -10 6 0 11 5 11 10 0 6 -2 10 -4 10 -3 0
-8 -4 -11 -10z"/>
<path d="M4964 732 c9 -15 48 -23 43 -9 -2 7 -14 14 -26 15 -13 2 -21 -1 -17
-6z"/>
</g>
</svg>
